# xmcd
#
# Track frame offsets:
#	180
#	14387
#	27297
#	39527
#	57007
#	72211
#	81954
#	97531
#	114328
#	126202
#
# Disc length: 1937 seconds
#
# Revision: 0
# Processed by: cddbd v1.5.2PL0 Copyright (c) Steve Scherf et al.
# Submitted via: EZCDAudioConverter 6.0.5.1
#
DISCID=72078f0a
DTITLE=Marie King - Merci Mes Amis
DYEAR=1900
DGENRE=
TTITLE0=Adieu Amis
TTITLE1=Donne-Moi Ton Épaule
TTITLE2=J'ai Le Coeur Qui Pleure
TTITLE3=Chérie
TTITLE4=Donne-Y La Claque
TTITLE5=Merci Mes Amis
TTITLE6=Pour Toi Toujours
TTITLE7=Un Si Beau Souvenir
TTITLE8=Valse D'un Vieil Amour
TTITLE9=N'en Faites Pas Des Musiciens
EXTD=
EXTT0=
EXTT1=
EXTT2=
EXTT3=
EXTT4=
EXTT5=
EXTT6=
EXTT7=
EXTT8=
EXTT9=
PLAYORDER=
